# xmcd
#
# Track frame offsets:
#	150
#	14335
#	27717
#	41316
#	55360
#	67341
#	82469
#	95892
#	110163
#	124309
#	138824
#	153533
#	167860
#	181837
#	194736
#	205548
#	231401
#	244293
#	254568
#	267319
#
# Disc length: 3719 seconds
#
# Revision: 1
# Processed by: cddbd v1.5PL3 Copyright (c) Steve Scherf et al.
# Submitted via: audiograbber 1.82.01
#
DISCID=3e0e8514
DTITLE=Various Artist - Spirituals and Gospel Songs - CD 3
DYEAR=2004
DGENRE=Gospel
TTITLE0=God's Gonna Separate The Wheat From The Tares
TTITLE1=Oh, My Lord
TTITLE2=(I'm Goin' To) Wait Until My Changes Coma
TTITLE3=I Have A Friend
TTITLE4=Tired
TTITLE5=Since The Fire Started Burning In My Soul
TTITLE6=Jesus Is With Me
TTITLE7=Bless This House
TTITLE8=I Gave Up Everything To Follow Him
TTITLE9=Come To Jesus
TTITLE10=City Called Heaven
TTITLE11=I Bow On My Knees
TTITLE12=Hands Of God
TTITLE13=It Is Not Secret
TTITLE14=Beautiful Tomorrow
TTITLE15=In The Upper Room
TTITLE16=He's My Light
TTITLE17=Run All The Way
TTITLE18=What Then
TTITLE19=Nobody Knows
EXTD=
EXTT0=
EXTT1=
EXTT2=
EXTT3=
EXTT4=
EXTT5=
EXTT6=
EXTT7=
EXTT8=
EXTT9=
EXTT10=
EXTT11=
EXTT12=
EXTT13=
EXTT14=
EXTT15=
EXTT16=
EXTT17=
EXTT18=
EXTT19=
PLAYORDER=
